<svg width="19" height="19" viewBox="0 0 19 19" fill="none" xmlns="http://www.w3.org/2000/svg">
<path d="M9.05599 0C4.06246 0 0 4.06246 0 9.05599C0 10.3889 0.289603 11.6558 0.808908 12.7963C0.999461 13.2147 1.22114 13.6165 1.47113 13.9981C1.67913 14.317 1.90695 14.6221 2.15316 14.9113C3.81531 16.8682 6.29297 18.112 9.05599 18.112C11.819 18.112 14.2967 16.8682 15.9588 14.9113C16.205 14.6221 16.4329 14.317 16.6409 13.9981C16.8908 13.6165 17.1125 13.2147 17.3031 12.7963C17.8224 11.6558 18.112 10.3889 18.112 9.05599C18.112 4.06246 14.0495 0 9.05599 0ZM16.4729 12.0398C16.3267 12.402 16.1546 12.751 15.9588 13.085C15.9041 13.1788 15.8475 13.2717 15.789 13.3628C15.6485 13.5821 15.4971 13.7944 15.3358 13.9981C15.041 14.3721 14.7136 14.7198 14.3575 15.0358C14.3462 15.0452 14.3349 15.0551 14.324 15.065C12.9161 16.3008 11.0719 17.0507 9.05599 17.0507C7.04009 17.0507 5.19588 16.3008 3.78795 15.065C3.7771 15.0551 3.76578 15.0452 3.75446 15.0358C3.39836 14.7198 3.07102 14.3721 2.77623 13.9981C2.61492 13.7944 2.46351 13.5821 2.32296 13.3628C2.26447 13.2717 2.20787 13.1788 2.15316 13.085C1.95741 12.751 1.78526 12.402 1.63904 12.0398C1.26642 11.1176 1.06125 10.1102 1.06125 9.05599C1.06125 4.6478 4.6478 1.06125 9.05599 1.06125C13.4642 1.06125 17.0507 4.6478 17.0507 9.05599C17.0507 10.1102 16.8456 11.1176 16.4729 12.0398Z" fill="#8C30F5"/>
<path d="M13.2887 8.77321C13.5241 8.93176 13.5241 9.27818 13.2887 9.43673L7.31742 13.4588C7.05173 13.6378 6.69395 13.4474 6.69395 13.1271L6.69395 5.08285C6.69395 4.7625 7.05173 4.57213 7.31742 4.75109L13.2887 8.77321Z" fill="#8C30F5"/>
</svg>
