<svg version="1.1"
     baseProfile="full"
     xmlns="http://www.w3.org/2000/svg"
>
  <symbol id="search" viewBox="0 0 14 14">
    <path fill-rule="evenodd" clip-rule="evenodd"
          d="M13.7432 12.5747L9.91019 8.73998C10.5973 7.80284 10.9653 6.66986 10.9602 5.50782C10.9471 2.47453 8.4938 0.0175753 5.46065 5.57205e-05C4.00911 -0.00651189 2.61524 0.56774 1.58955 1.59488C0.56385 2.62203 -0.00846501 4.01674 9.46511e-05 5.46832C0.0132045 8.50189 2.46672 10.9591 5.50015 10.9766C6.66687 10.9816 7.80394 10.6093 8.74168 9.91504L8.74568 9.91204L12.5752 13.7437C12.7823 13.9609 13.0908 14.0489 13.3812 13.9734C13.6717 13.898 13.8984 13.6711 13.9736 13.3805C14.0488 13.09 13.9606 12.7815 13.7432 12.5747ZM5.51642 9.99996C3.02567 9.98565 1.01101 7.9711 1.00007 5.48386C0.993349 4.29378 1.46334 3.15042 2.30543 2.30827C3.14752 1.46612 4.29181 0.995095 5.48358 1.00004C7.97433 1.01435 9.98899 3.0289 9.99993 5.51614C10.0067 6.70622 9.53666 7.84958 8.69457 8.69173C7.85248 9.53388 6.70819 10.0049 5.51642 9.99996Z"
          fill="#8E8E93"/>
  </symbol>

  <symbol id="bell" viewBox="0 0 19 24" fill="none">
    <path
      d="M9.49973 23.95C7.56502 23.95 5.98726 22.293 5.98726 20.25C5.98726 19.8613 6.28654 19.55 6.64975 19.55C7.01296 19.55 7.31224 19.8613 7.31224 20.25C7.31224 21.5164 8.291 22.55 9.49973 22.55C10.7089 22.55 11.6872 21.5164 11.6872 20.25C11.6872 19.8613 11.9865 19.55 12.3497 19.55C12.7129 19.55 13.0122 19.8613 13.0122 20.25C13.0122 22.293 11.4344 23.95 9.49973 23.95Z"
      fill="black" stroke="white" stroke-width="0.1"/>
    <path
      d="M1.47708 19.0208L1.47725 19.0206C3.22298 17.4671 4.22497 15.1948 4.22497 12.788V9.99984C4.22497 6.94187 6.58863 4.45 9.49978 4.45C12.4114 4.45 14.775 6.94186 14.775 10.0003V12.7884C14.775 15.1952 15.777 17.4676 17.5245 19.0229L1.47708 19.0208ZM1.47708 19.0208C1.4376 19.0562 1.37499 19.131 1.37499 19.2502M1.47708 19.0208L1.37499 19.2502M1.37499 19.2502C1.37499 19.4113 1.5032 19.55 1.66234 19.55M1.37499 19.2502L1.66234 19.55M1.66234 19.55H17.3372M1.66234 19.55H17.3372M17.3372 19.55C17.4962 19.55 17.625 19.4114 17.625 19.2502M17.3372 19.55L17.625 19.2502M17.625 19.2502C17.625 19.1312 17.5621 19.0563 17.5245 19.023L17.625 19.2502ZM17.3372 20.95H1.66234C0.775893 20.95 0.05 20.1897 0.05 19.2502C0.05 18.7516 0.25626 18.2806 0.614902 17.9576C2.07041 16.6625 2.89998 14.7808 2.89998 12.788V9.99984C2.89998 6.16532 5.8631 3.05 9.49978 3.05C13.1369 3.05 16.1 6.16532 16.1 9.99984V12.788C16.1 14.7808 16.9296 16.6625 18.3758 17.9502C18.7439 18.2803 18.95 18.7517 18.95 19.2497C18.95 20.1897 18.2241 20.95 17.3372 20.95Z"
      fill="black" stroke="white" stroke-width="0.1"/>
    <path
      d="M9.49973 4.45C9.13652 4.45 8.83723 4.13874 8.83723 3.75V0.75C8.83723 0.36126 9.13652 0.05 9.49973 0.05C9.86294 0.05 10.1622 0.36126 10.1622 0.75V3.75C10.1622 4.13874 9.86294 4.45 9.49973 4.45Z"
      fill="black" stroke="white" stroke-width="0.1"/>
  </symbol>

  <symbol id="favorite" viewBox="0 0 17 28" fill="none">
    <path
      d="M1.3885 0.259399H15.6121C16.2337 0.259399 16.7413 0.767359 16.7413 1.38935V27.2538C16.7413 27.6581 16.2752 27.8862 15.954 27.6374L9.11672 22.3401C8.75413 22.0602 8.25687 22.0602 7.90465 22.3401L1.06736 27.6374C0.746211 27.8862 0.280031 27.6581 0.280031 27.2538V1.38935C0.259312 0.767359 0.76693 0.259399 1.3885 0.259399Z"
      stroke="black" stroke-width="0.5" stroke-miterlimit="10"/>
  </symbol>

  <symbol id="star" viewBox="0 0 11 11">
    <path fill-rule="evenodd" clip-rule="evenodd" d="M5.57235 8.2957L3.30726 9.47825C2.94024 9.66986 2.51269 9.35791 2.58315 8.94992L3.01484 6.45048L1.1894 4.68348C0.890887 4.39453 1.05455 3.88868 1.46574 3.82935L3.99172 3.46486L5.1246 1.18536C5.30846 0.815397 5.83624 0.815397 6.0201 1.18536L7.15298 3.46486L9.67896 3.82935C10.0901 3.88868 10.2538 4.39453 9.9553 4.68348L8.12986 6.45048L8.56155 8.94992C8.63201 9.35791 8.20446 9.66986 7.83744 9.47825L5.57235 8.2957Z" />
  </symbol>

  <symbol id="twitter" viewBox="0 0 16 15" fill="none">
    <path fill-rule="evenodd" clip-rule="evenodd" d="M5.032 14.4707C11.0696 14.4707 14.372 9.0839 14.372 4.41298C14.372 4.25964 14.372 4.10716 14.3624 3.95554C15.0048 3.45588 15.5592 2.83562 16 2.12577C15.4016 2.41178 14.7656 2.59958 14.1152 2.68228C14.8 2.24034 15.3128 1.54599 15.5584 0.72673C14.9136 1.13852 14.2088 1.42883 13.4736 1.58476C12.2304 0.161602 10.1512 0.0926844 8.8288 1.43142C7.9768 2.29461 7.6144 3.58166 7.8792 4.80926C5.24 4.66626 2.7808 3.32408 1.1136 1.11612C0.2424 2.73138 0.688 4.7972 2.1304 5.83442C1.608 5.81805 1.0968 5.66643 0.64 5.39248V5.43728C0.6408 7.11974 1.7424 8.56874 3.2736 8.90213C2.7904 9.04427 2.2832 9.06495 1.792 8.96243C2.2216 10.4028 3.4544 11.3892 4.8584 11.4176C3.696 12.4014 2.26 12.9356 0.7816 12.9338C0.5208 12.933 0.26 12.9166 0 12.883C1.5016 13.9202 3.248 14.4707 5.032 14.4681" fill="white"/>
  </symbol>

  <symbol id="inst" viewBox="0 0 16 16" fill="none">
    <path opacity="0.9" d="M8.00179 3.8978C5.73162 3.8978 3.9005 5.72933 3.9005 8C3.9005 10.2707 5.73162 12.1022 8.00179 12.1022C10.2719 12.1022 12.1031 10.2707 12.1031 8C12.1031 5.72933 10.2719 3.8978 8.00179 3.8978ZM8.00179 10.667C6.53475 10.667 5.33542 9.47094 5.33542 8C5.33542 6.52906 6.53118 5.33304 8.00179 5.33304C9.47239 5.33304 10.6682 6.52906 10.6682 8C10.6682 9.47094 9.46882 10.667 8.00179 10.667ZM13.2274 3.73C13.2274 4.26197 12.7991 4.68682 12.2708 4.68682C11.739 4.68682 11.3142 4.2584 11.3142 3.73C11.3142 3.20161 11.7426 2.77318 12.2708 2.77318C12.7991 2.77318 13.2274 3.20161 13.2274 3.73ZM15.9438 4.7011C15.8831 3.41939 15.5904 2.28406 14.6516 1.34866C13.7165 0.413254 12.5814 0.120495 11.2999 0.0562312C9.97925 -0.0187437 6.02075 -0.0187437 4.70006 0.0562312C3.4222 0.116925 2.28712 0.409684 1.34835 1.34509C0.409593 2.28049 0.120468 3.41582 0.0562186 4.69753C-0.0187395 6.01852 -0.0187395 9.97791 0.0562186 11.2989C0.116899 12.5806 0.409593 13.7159 1.34835 14.6513C2.28712 15.5867 3.41863 15.8795 4.70006 15.9438C6.02075 16.0187 9.97925 16.0187 11.2999 15.9438C12.5814 15.8831 13.7165 15.5903 14.6516 14.6513C15.5868 13.7159 15.8795 12.5806 15.9438 11.2989C16.0187 9.97791 16.0187 6.02209 15.9438 4.7011ZM14.2376 12.7163C13.9592 13.416 13.4202 13.9551 12.717 14.2372C11.664 14.6549 9.16542 14.5585 8.00179 14.5585C6.83815 14.5585 4.33597 14.6513 3.28656 14.2372C2.58695 13.9587 2.04796 13.4196 1.76598 12.7163C1.34835 11.6631 1.44473 9.1639 1.44473 8C1.44473 6.8361 1.35192 4.33337 1.76598 3.28372C2.04439 2.58396 2.58338 2.04485 3.28656 1.7628C4.33954 1.34509 6.83815 1.44148 8.00179 1.44148C9.16542 1.44148 11.6676 1.34866 12.717 1.7628C13.4166 2.04128 13.9556 2.58039 14.2376 3.28372C14.6552 4.33694 14.5588 6.8361 14.5588 8C14.5588 9.1639 14.6552 11.6666 14.2376 12.7163Z" fill="white"/>
  </symbol>

  <symbol id="google" viewBox="0 0 15 15" fill="none">
  <path fill-rule="evenodd" clip-rule="evenodd" d="M14.8165 6.07341H8.08931C8.08931 6.77302 8.08932 8.17223 8.08503 8.87183H11.9832C11.8339 9.57144 11.3042 10.5509 10.5559 11.0441C10.5552 11.0434 10.5545 11.0483 10.553 11.0476C9.55811 11.7045 8.24513 11.8536 7.27022 11.6577C5.7421 11.354 4.53275 10.2459 4.04172 8.83825C4.04458 8.83615 4.04673 8.81656 4.04887 8.81517C3.74153 7.94206 3.74153 6.77302 4.04887 6.07341H4.04815C4.44412 4.78753 5.68992 3.61429 7.22019 3.29317C8.45098 3.03222 9.83972 3.31486 10.8611 4.27052C10.9969 4.1376 12.7409 2.43476 12.8717 2.29623C9.38229 -0.863886 3.79514 0.247788 1.70451 4.32859H1.7038C1.7038 4.32859 1.70451 4.32859 1.70022 4.33629C0.665988 6.34066 0.708873 8.70253 1.70737 10.6111C1.70451 10.6132 1.70237 10.6146 1.70022 10.6167C2.60509 12.3727 4.25186 13.7194 6.23598 14.2322C8.34376 14.7849 11.0262 14.4071 12.8231 12.7819C12.8238 12.7826 12.8245 12.7833 12.8252 12.784C14.3476 11.4128 15.2954 9.07682 14.8165 6.07341Z" fill="white"/>
  </symbol>

  <symbol id="facebook" viewBox="0 0 9 16" fill="none">
    <path fill-rule="evenodd" clip-rule="evenodd" d="M6.10351 15.4707V8.7207H8.28944L8.64648 5.7207H6.10351V4.2597C6.10351 3.4872 6.12456 2.7207 7.27599 2.7207H8.44224V0.575703C8.44224 0.543453 7.44048 0.470703 6.42703 0.470703C4.31049 0.470703 2.98521 1.71345 2.98521 3.9957V5.7207H0.646484V8.7207H2.98521V15.4707H6.10351Z" fill="white"/>
  </symbol>

  <symbol id="google-colored" viewBox="0 0 22 22" fill="none">
    <path d="M7.55724 1.02399C4.99478 1.92431 2.7786 3.86347 1.532 6.28742C1.11647 7.11848 0.770191 8.01881 0.631679 8.98839C0.14689 11.2738 0.493168 13.767 1.532 15.8447C2.22456 17.2298 3.19414 18.4072 4.44074 19.3767C5.54883 20.2771 6.86468 20.9696 8.31905 21.3159C10.1197 21.8007 11.9896 21.8007 13.721 21.3851C15.3139 21.0389 16.8375 20.2771 18.0841 19.0997C19.4 17.9224 20.3003 16.3987 20.7851 14.6673C21.3391 12.8667 21.4084 10.9275 21.0621 9.05764C17.7378 9.05764 14.4135 9.05764 11.0893 9.05764C11.0893 10.4428 11.0893 11.8279 11.0893 13.213C13.0284 13.213 14.9676 13.213 16.8375 13.213C16.6297 14.5288 15.7987 15.7754 14.6906 16.468C13.998 16.9528 13.1669 17.2298 12.3359 17.3683C11.5048 17.5068 10.6045 17.5068 9.77342 17.3683C8.94235 17.2298 8.11129 16.8143 7.41873 16.3295C6.31064 15.5677 5.41032 14.3903 4.99478 13.0745C4.50999 11.7586 4.50999 10.3042 4.99478 8.91913C5.34106 8.01881 5.82585 7.11848 6.51841 6.42593C7.34947 5.5256 8.45756 4.9023 9.70417 4.69454C10.743 4.48677 11.7818 4.48677 12.8207 4.83305C13.6517 5.11007 14.4828 5.59486 15.1061 6.1489C15.7294 5.5256 16.422 4.83305 17.0453 4.20975C17.3915 3.86347 17.7378 3.51719 18.0841 3.17091C17.1145 2.27059 15.9372 1.50878 14.6906 1.02399C12.4051 0.262176 9.84268 0.262176 7.55724 1.02399Z" fill="white"/>
    <path d="M7.55698 1.02398C9.84241 0.262171 12.4049 0.262171 14.6903 1.09324C15.9369 1.57803 17.1143 2.27058 18.0838 3.24016C17.7376 3.58644 17.3913 3.93272 17.045 4.279C16.4217 4.9023 15.7291 5.59485 15.1058 6.21815C14.4825 5.59485 13.6515 5.11007 12.8204 4.9023C11.8508 4.62528 10.7427 4.55602 9.7039 4.76379C8.52656 5.04081 7.41847 5.66411 6.51814 6.49518C5.82559 7.18773 5.27154 8.08806 4.99452 8.98838C3.81717 8.08806 2.70908 7.18773 1.53174 6.28741C2.77834 3.86346 4.99452 1.92431 7.55698 1.02398Z" fill="#EA4335"/>
    <path d="M0.631679 8.98838C0.839446 8.08806 1.11647 7.18774 1.532 6.28741C2.70935 7.18774 3.81744 8.08806 4.99479 8.98838C4.51 10.3042 4.51 11.7586 4.99479 13.1437C3.81744 14.044 2.70935 14.9444 1.532 15.8447C0.493168 13.6978 0.14689 11.2738 0.631679 8.98838Z" fill="#FBBC05"/>
    <path d="M11.02 9.05765C14.3443 9.05765 17.6686 9.05765 20.9928 9.05765C21.3391 10.9275 21.2699 12.8667 20.7158 14.6674C20.231 16.3295 19.3307 17.8531 18.0148 19.0997C16.9067 18.1994 15.7987 17.3683 14.6213 16.468C15.7294 15.7062 16.4912 14.5288 16.7682 13.213C14.8291 13.213 12.8899 13.213 11.02 13.213C11.02 11.8279 11.02 10.4428 11.02 9.05765Z" fill="#4285F4"/>
    <path d="M1.53174 15.8447C2.70908 14.9444 3.81717 14.044 4.99452 13.1437C5.41005 14.4596 6.31038 15.6369 7.41847 16.3987C8.11102 16.8835 8.94209 17.2298 9.77316 17.4376C10.6042 17.5761 11.4353 17.5761 12.3356 17.4376C13.1667 17.2991 13.9978 16.9528 14.6903 16.5372C15.7984 17.4376 16.9065 18.2686 18.0838 19.169C16.8372 20.2771 15.3829 21.0389 13.7207 21.4544C11.9201 21.8699 10.0502 21.8699 8.31879 21.3851C6.93368 21.0389 5.61782 20.3463 4.44047 19.446C3.26313 18.4071 2.22429 17.1605 1.53174 15.8447Z" fill="#34A853"/>
  </symbol>

  <symbol id="facebook-colored" viewBox="0 0 22 22" fill="none">
    <g clip-path="url(#clip0)">
      <path d="M21.3194 20.4263C21.3194 21.1613 20.7229 21.7579 19.9878 21.7579H1.34574C0.610708 21.7579 0.0141602 21.1613 0.0141602 20.4263V1.78421C0.0141602 1.04918 0.610708 0.452629 1.34574 0.452629H19.9878C20.7229 0.452629 21.3194 1.04918 21.3194 1.78421V20.4263Z" fill="#3B5998"/>
      <path d="M14.6615 21.7579V13.7684H17.3247L17.9905 10.4395H14.6615V9.10789C14.6615 7.77631 15.3287 7.11053 16.6589 7.11053H17.9905V3.78158C17.3247 3.78158 16.4991 3.78158 15.3273 3.78158C12.8806 3.78158 11.3326 5.69972 11.3326 8.4421V10.4395H8.66943V13.7684H11.3326V21.7579H14.6615Z" fill="white"/>
    </g>
    <defs>
      <clipPath id="clip0">
        <rect width="21.3053" height="21.3053" fill="white" transform="translate(0.0141602 0.452629)"/>
      </clipPath>
    </defs>
  </symbol>

  <symbol id="heart" viewBox="0 0 34 31" fill="none">
    <path fill-rule="evenodd" clip-rule="evenodd" d="M32.7096 6.03674C31.1164 2.48097 27.7501 0.183228 24.1338 0.183228C20.5198 0.183228 18.1756 1.77286 16.7945 3.49489C15.4134 1.77286 13.0692 0.183228 9.45565 0.183228C5.83934 0.183228 2.47299 2.48097 0.879458 6.03674C-0.779694 9.73937 -0.063775 13.8634 2.79444 17.0696C9.64078 24.7499 15.6911 30.1948 15.7513 30.2487C16.0481 30.5151 16.4215 30.6479 16.7945 30.6479C17.1679 30.6479 17.5409 30.5151 17.8377 30.2487C17.8979 30.1948 23.9482 24.7499 30.7946 17.0696C33.6528 13.8634 34.3691 9.73937 32.7096 6.03674Z" fill="#8C30F5"/>
    <path fill-rule="evenodd" clip-rule="evenodd" d="M28.4634 14.9902C23.4016 20.6684 18.7908 25.0967 16.7954 26.9613C14.8011 25.0982 10.1943 20.6742 5.12744 14.9902C3.0824 12.6964 2.57349 9.8987 3.73153 7.31468C4.80522 4.91812 7.10608 3.30779 9.45655 3.30779C14.1176 3.30779 15.1726 6.79404 15.2804 7.20258C15.453 7.89155 16.0717 8.38524 16.7833 8.38524H16.797C17.5066 8.38524 18.1296 7.89194 18.31 7.20454C18.4143 6.80654 19.465 3.31209 24.1347 3.31209C26.4847 3.31209 28.7856 4.92008 29.8597 7.31663C31.0173 9.90066 30.5088 12.6964 28.4634 14.9902Z" fill="#F4F4F4"/>
  </symbol>

  <symbol id="button-favorite" viewBox="0 0 13 20" fill="none">
    <path d="M1.71764 1H10.9212C11.3234 1 11.6518 1.32655 11.6518 1.7264V18.3536C11.6518 18.6135 11.3502 18.7601 11.1424 18.6001L6.71825 15.1947C6.48364 15.0148 6.16188 15.0148 5.93397 15.1947L1.50984 18.6001C1.30204 18.7601 1.0004 18.6135 1.0004 18.3536V1.7264C0.98699 1.32655 1.31545 1 1.71764 1Z" stroke="#FFBA49" stroke-width="2" stroke-miterlimit="10"/>
  </symbol>

  <symbol id="path-chevron" viewBox="0 0 6 10">
    <path fill-rule="evenodd" clip-rule="evenodd" d="M0 1.16667L1.13514 0L6 5L1.13514 10L0 8.83333L3.72973 5L0 1.16667Z" fill="#9B9B9B"/>
  </symbol>

  <symbol id="faq-chevron" viewBox="0 0 33 22">
    <path fill-rule="evenodd" clip-rule="evenodd" d="M28.3833 1L32 4.78378L16.5 21L1 4.78378L4.61667 0.999999L16.5 13.4324L28.3833 1Z" fill="#9B9B9B" stroke="#F4F4F4"/>
  </symbol>

  <symbol id="download" viewBox="0 0 19 20">
    <path d="M9.12371 19.0667C4.08482 19.0667 0 14.9875 0 9.95556C0 4.92364 4.08482 0.844452 9.12371 0.844452C14.1626 0.844452 18.2474 4.92364 18.2474 9.95556C18.2419 14.9852 14.1603 19.0612 9.12371 19.0667ZM9.12371 2.66667C5.0926 2.66667 1.82474 5.93002 1.82474 9.95556C1.82474 13.9811 5.0926 17.2445 9.12371 17.2445C13.1548 17.2445 16.4227 13.9811 16.4227 9.95556C16.4182 5.93189 13.1529 2.67119 9.12371 2.66667ZM9.12371 14.5111L4.56186 9.95556L5.8483 8.6709L8.21134 11.0216V5.40001H10.0361V11.0216L12.3991 8.6709L13.6856 9.95556L9.12371 14.5111Z"/>
  </symbol>

  <symbol id="material-chevron" viewBox="0 0 11 16">
    <path d="M11 7.99934L2.09482 0L0 1.88204L6.81482 8.00466L0 14.118L2.09482 16L11 7.99934Z"/>
  </symbol>

  <symbol id="file" viewBox="0 0 39 49">
    <path d="M34.125 49H4.875C2.18261 49 0 46.8063 0 44.1002V4.90192C0 2.19584 2.18261 0.00213502 4.875 0.00213502H7.3125V4.90192H12.1875V9.80171H7.3125V14.7015H12.1875V19.6013H7.3125V36.7505H17.0625V24.5011H12.1875V19.6013H17.0625V14.7015H12.1875V9.80171H17.0625V4.90192H12.1875V0.00213502H21.9375C21.9593 -0.000711672 21.9815 -0.000711672 22.0033 0.00213502H22.0179C22.041 0.00938195 22.0646 0.014306 22.0886 0.0168344C22.3036 0.0306841 22.5158 0.0726874 22.7199 0.141779H22.7565H22.7931H22.8223C22.8673 0.173446 22.9097 0.208673 22.9491 0.247124C23.2146 0.365757 23.4566 0.531764 23.6632 0.737103L38.2882 15.4365C38.4925 15.6442 38.6577 15.8874 38.7757 16.1543C38.7977 16.2082 38.8148 16.2596 38.8318 16.316L38.8562 16.3846C38.9242 16.5889 38.9644 16.8015 38.9756 17.0166C38.9777 17.0411 38.9835 17.065 38.9927 17.0877V17.1024C38.9967 17.1184 38.9991 17.1349 39 17.1514V44.1002C39 45.3997 38.4864 46.646 37.5721 47.5649C36.6579 48.4838 35.4179 49 34.125 49ZM21.9375 4.90192V17.1514H34.125L21.9375 4.90192ZM14.625 34.3006H9.75V29.4009H14.625V34.3006Z" fill="#2E3A59"/>
  </symbol>

  <symbol id="flag" viewBox="0 0 29 29">
    <path d="M20.7836 10.875L25.1701 4.29529C25.7054 3.49229 25.1298 2.41669 24.1647 2.41669H6.03973V1.20831C6.03973 0.540975 5.4987 0 4.83136 0C4.16402 0 3.62305 0.540975 3.62305 1.20831V3.625V18.125V27.7917C3.62305 28.459 4.16402 29 4.83136 29C5.4987 29 6.03968 28.459 6.03968 27.7917V19.3333H24.1647C25.1298 19.3333 25.7054 18.2577 25.17 17.4547L20.7836 10.875ZM6.03973 16.9167V4.83331H21.9069L18.326 10.2047C18.0554 10.6106 18.0554 11.1393 18.326 11.5452L21.9069 16.9166H6.03973V16.9167Z" fill="black"/>
  </symbol>

  <symbol id="flag-yellow" viewBox="0 0 29 29">
    <path d="M23.5 4H5V18H24L19.5 11L23.5 4Z" fill="#FFBA49" stroke="#693030"/>
    <path d="M20.7836 10.875L25.1701 4.29529C25.7054 3.49229 25.1298 2.41669 24.1647 2.41669H6.03973V1.20831C6.03973 0.540975 5.4987 0 4.83136 0C4.16402 0 3.62305 0.540975 3.62305 1.20831V3.625V18.125V27.7917C3.62305 28.459 4.16402 29 4.83136 29C5.4987 29 6.03968 28.459 6.03968 27.7917V19.3333H24.1647C25.1298 19.3333 25.7054 18.2577 25.17 17.4547L20.7836 10.875ZM6.03973 16.9167V4.83331H21.9069L18.326 10.2047C18.0554 10.6106 18.0554 11.1393 18.326 11.5452L21.9069 16.9166H6.03973V16.9167Z" fill="black"/>
  </symbol>

  <symbol id="cloud" viewBox="0 0 108 72">
    <path d="M85.4935 72H27.0097C12.9483 72.0083 1.23587 61.2174 0.0908073 47.1989C-1.05426 33.1804 8.75163 20.6308 22.6279 18.3559C29.0149 7.02895 41.0013 0.0163139 54.0022 0.000254694C62.109 -0.0303966 69.9838 2.70635 76.325 7.75846C82.5517 12.6988 86.9786 19.5528 88.9215 27.2613C100.546 29.0479 108.832 39.4901 107.933 51.2196C107.035 62.9491 97.2542 72.0062 85.4935 72ZM54.0022 9.0004C44.2476 9.01194 35.2544 14.2749 30.4647 22.7748L28.3593 26.5503L24.09 27.2478C14.8688 28.7931 8.36692 37.1446 9.12813 46.4657C9.88933 55.7869 17.6601 62.9722 27.0097 63.0001H85.4935C92.5501 63.0073 98.4211 57.5758 98.9637 50.5381C99.5063 43.5005 94.5372 37.2328 87.5629 36.1577L81.6426 35.2578L80.194 29.4438C77.2035 17.4145 66.3945 8.97775 54.0022 9.0004ZM60.5254 54.0001H47.479V40.5002H36.0072L54.0022 22.5003L71.9972 40.5002H60.5254V54.0001Z" fill="#DADADA"/>
  </symbol>

  <symbol id="select-chevron" viewBox="0 0 11 16">
    <path d="M11 7.99934L2.09482 0L0 1.88204L6.81482 8.00466L0 14.118L2.09482 16L11 7.99934Z" fill="#B6B6B6"/>
  </symbol>

  <symbol id="map-pin" viewBox="0 0 24 30">
    <path d="M11.9999 30C9.83469 28.2048 7.82771 26.2366 5.99997 24.1162C3.25713 20.9319 1.51484e-06 16.1895 1.51484e-06 11.6704C-0.00242961 6.95066 2.92155 2.69462 7.40751 0.888333C11.8935 -0.917949 17.0572 0.0815712 20.489 3.42048C22.7458 5.60438 24.01 8.57507 23.9999 11.6704C23.9999 16.1895 20.7428 20.9319 17.9999 24.1162C16.1722 26.2366 14.1652 28.2048 11.9999 30ZM11.9999 3.33883C7.26845 3.34434 3.43422 7.07131 3.42856 11.6704C3.42856 13.6134 4.33198 16.9777 8.63139 21.9783C9.69105 23.2082 10.8154 24.3839 11.9999 25.5009C13.1846 24.3853 14.3095 23.2112 15.3702 21.9833C19.6679 16.976 20.5713 13.6117 20.5713 11.6704C20.5657 7.07131 16.7314 3.34434 11.9999 3.33883Z" fill="#545454"/>
  </symbol>
</svg>
